<svg width="24" height="24" viewBox="0 0 24 24" fill="none" xmlns="http://www.w3.org/2000/svg">
<path d="M21.0987 3.5C21.5508 3.5 21.9915 3.69445 22.2588 4.10449C22.5183 4.50242 22.5609 5.02063 22.419 5.58203L19.4033 19.1416L19.4024 19.1406C19.2804 19.6972 19.013 20.1822 18.5176 20.3955C18.0307 20.6051 17.4949 20.4771 17.0147 20.2217C16.9964 20.2119 16.9789 20.2004 16.9619 20.1885L9.77151 15.124C9.67931 15.0609 9.60222 14.9769 9.54788 14.876C9.49341 14.7748 9.4639 14.6613 9.4639 14.5449C9.46391 14.4286 9.49342 14.315 9.54788 14.2139L9.5928 14.1416C9.63085 14.0877 9.67594 14.0399 9.72659 13.999L15.627 8.91699L7.61917 13.7344L7.62015 13.7354C7.52558 13.7941 7.41963 13.8308 7.31058 13.8438C7.20142 13.8568 7.09035 13.8457 6.98538 13.8115L2.56839 12.4795C2.28618 12.4 2.02604 12.2821 1.83108 12.1094C1.62469 11.9263 1.46906 11.6563 1.50491 11.3281C1.53833 11.0234 1.72578 10.7839 1.93167 10.6113C2.14266 10.4346 2.42331 10.2838 2.75589 10.1572L2.76175 10.1553L20.4776 3.63867V3.64062C20.6667 3.5596 20.8684 3.51121 21.0742 3.50098C21.0823 3.50057 21.0906 3.50001 21.0987 3.5ZM21.1094 4.50098C21.0212 4.50708 20.9351 4.52783 20.8565 4.56348C20.8456 4.56842 20.8345 4.573 20.8233 4.57715L3.11136 11.0908C2.84151 11.1935 2.67049 11.2965 2.57327 11.3779C2.56441 11.3854 2.55789 11.3939 2.55081 11.4004C2.58804 11.4228 2.63968 11.4495 2.70999 11.4756L2.84573 11.5195L2.85647 11.5225L7.18753 12.8281L17.5274 6.6084L17.5342 6.60352C17.7029 6.50564 17.8769 6.44073 18.042 6.4082C18.1978 6.37754 18.3838 6.36849 18.5586 6.42578C18.6482 6.45516 18.7606 6.51126 18.8535 6.61719C18.9546 6.73233 19.0088 6.88131 19.002 7.03906C18.9902 7.31284 18.8061 7.50245 18.6866 7.60352L10.6514 14.5215L17.5098 19.3506C17.857 19.5299 18.0419 19.5111 18.1221 19.4766C18.1953 19.445 18.3379 19.3322 18.4268 18.9258V18.9238L21.4473 5.34863C21.5486 4.95803 21.4831 4.74577 21.4209 4.65039C21.3651 4.56492 21.2674 4.50356 21.1094 4.50098Z" fill="#345873"/>
</svg>
