<svg width="24" height="24" viewBox="0 0 24 24" fill="none" xmlns="http://www.w3.org/2000/svg">
<path d="M21.5 12C21.5 6.77614 17.2239 2.5 12 2.5C6.77614 2.5 2.5 6.77614 2.5 12C2.5 17.2239 6.77614 21.5 12 21.5C17.2239 21.5 21.5 17.2239 21.5 12ZM11.499 16.8008V16.7617C11.499 16.4856 11.7229 16.2617 11.999 16.2617C12.2752 16.2617 12.499 16.4856 12.499 16.7617V16.8008C12.499 17.0769 12.2752 17.3008 11.999 17.3008C11.7229 17.3008 11.499 17.0769 11.499 16.8008ZM11.499 13.3125C11.499 12.8904 11.4988 12.5081 11.499 12.2314C11.4991 12.0931 11.4999 11.9807 11.5 11.9033V11.7832C11.5004 11.5074 11.7242 11.2842 12 11.2842C12.9577 11.2842 13.75 10.49 13.75 9.49121C13.7499 8.4925 12.9576 7.69922 12 7.69922C11.0424 7.69922 10.2501 8.4925 10.25 9.49121C10.25 9.76735 10.0261 9.99121 9.75 9.99121C9.47386 9.99121 9.25 9.76735 9.25 9.49121C9.25014 7.95793 10.4725 6.69922 12 6.69922C13.5275 6.69922 14.7499 7.95794 14.75 9.49121C14.75 10.8532 13.7851 11.9963 12.499 12.2354C12.4988 12.5116 12.499 12.8923 12.499 13.3125C12.4989 13.5885 12.2751 13.8125 11.999 13.8125C11.7229 13.8125 11.4991 13.5885 11.499 13.3125ZM22.5 12C22.5 17.7761 17.7761 22.5 12 22.5C6.22386 22.5 1.5 17.7761 1.5 12C1.5 6.22386 6.22386 1.5 12 1.5C17.7761 1.5 22.5 6.22386 22.5 12Z" fill="#345873"/>
</svg>
